<svg width="88" height="88" viewBox="0 0 88 88" fill="none" xmlns="http://www.w3.org/2000/svg">
<path d="M25.0323 22.6414C24.3723 23.6861 23.4917 24.5737 22.4522 25.242C21.4128 25.9102 20.2397 26.3429 19.0153 26.5098C17.622 26.7078 16.2397 26.9204 14.8573 27.1514C10.9963 27.7931 8.25 31.1921 8.25 35.1044V65.9998C8.25 68.1878 9.11919 70.2862 10.6664 71.8334C12.2135 73.3806 14.312 74.2498 16.5 74.2498H71.5C73.688 74.2498 75.7865 73.3806 77.3336 71.8334C78.8808 70.2862 79.75 68.1878 79.75 65.9998V35.1044C79.75 31.1921 77 27.7931 73.1427 27.1514C71.7593 26.9209 70.3732 26.707 68.9847 26.5098C67.7609 26.3424 66.5886 25.9095 65.5498 25.2412C64.511 24.573 63.631 23.6857 62.9713 22.6414L59.9573 17.8161C59.2804 16.7165 58.3485 15.7961 57.2405 15.133C56.1325 14.4698 54.881 14.0834 53.592 14.0064C47.2019 13.6632 40.7981 13.6632 34.408 14.0064C33.119 14.0834 31.8675 14.4698 30.7595 15.133C29.6515 15.7961 28.7196 16.7165 28.0427 17.8161L25.0323 22.6414Z" stroke="#1D2939" stroke-width="1.5" stroke-linecap="round" stroke-linejoin="round"/>
<path d="M60.5 46.75C60.5 51.1261 58.7616 55.3229 55.6673 58.4173C52.5729 61.5116 48.3761 63.25 44 63.25C39.6239 63.25 35.4271 61.5116 32.3327 58.4173C29.2384 55.3229 27.5 51.1261 27.5 46.75C27.5 42.3739 29.2384 38.1771 32.3327 35.0827C35.4271 31.9884 39.6239 30.25 44 30.25C48.3761 30.25 52.5729 31.9884 55.6673 35.0827C58.7616 38.1771 60.5 42.3739 60.5 46.75ZM68.75 38.5H68.7793V38.5293H68.75V38.5Z" stroke="#1D2939" stroke-width="1.5" stroke-linecap="round" stroke-linejoin="round"/>
</svg>
