<svg width="16" height="16" viewBox="0 0 16 16" fill="none" xmlns="http://www.w3.org/2000/svg">
<path d="M7.56667 2.55733C7.52333 2.69733 7.5 2.846 7.5 3C7.5 3.276 7.724 3.5 8 3.5H11C11.1326 3.5 11.2598 3.44732 11.3536 3.35355C11.4473 3.25979 11.5 3.13261 11.5 3C11.5 2.84994 11.4776 2.70072 11.4333 2.55733M7.56667 2.55733C7.66135 2.25113 7.85158 1.98329 8.10951 1.79303C8.36743 1.60276 8.67949 1.50008 9 1.5H10C10.6747 1.5 11.2447 1.94533 11.4333 2.55733M7.56667 2.55733C7.316 2.57267 7.06667 2.59067 6.81733 2.61067C6.06333 2.67333 5.5 3.31533 5.5 4.072V5.5M11.4333 2.55733C11.684 2.57267 11.9333 2.59067 12.1827 2.61067C12.9367 2.67333 13.5 3.31533 13.5 4.072V11C13.5 11.3978 13.342 11.7794 13.0607 12.0607C12.7794 12.342 12.3978 12.5 12 12.5H10.5M5.5 5.5H3.25C2.836 5.5 2.5 5.836 2.5 6.25V13.75C2.5 14.164 2.836 14.5 3.25 14.5H9.75C10.164 14.5 10.5 14.164 10.5 13.75V12.5M5.5 5.5H9.75C10.164 5.5 10.5 5.836 10.5 6.25V12.5M5 10.5L6 11.5L8 9" stroke="#1D2939" stroke-linecap="round" stroke-linejoin="round"/>
</svg>
