<svg width="16" height="16" viewBox="0 0 16 16" fill="none" xmlns="http://www.w3.org/2000/svg">
<path d="M2.66666 4.1665C2.66666 3.76868 2.82469 3.38715 3.106 3.10584C3.3873 2.82454 3.76883 2.6665 4.16666 2.6665H5.66666C6.06448 2.6665 6.44601 2.82454 6.72732 3.10584C7.00862 3.38715 7.16666 3.76868 7.16666 4.1665V5.6665C7.16666 6.06433 7.00862 6.44586 6.72732 6.72716C6.44601 7.00847 6.06448 7.1665 5.66666 7.1665H4.16666C3.76883 7.1665 3.3873 7.00847 3.106 6.72716C2.82469 6.44586 2.66666 6.06433 2.66666 5.6665V4.1665ZM2.66666 10.6665C2.66666 10.2687 2.82469 9.88715 3.106 9.60584C3.3873 9.32454 3.76883 9.1665 4.16666 9.1665H5.66666C6.06448 9.1665 6.44601 9.32454 6.72732 9.60584C7.00862 9.88715 7.16666 10.2687 7.16666 10.6665V12.1665C7.16666 12.5643 7.00862 12.9459 6.72732 13.2272C6.44601 13.5085 6.06448 13.6665 5.66666 13.6665H4.16666C3.76883 13.6665 3.3873 13.5085 3.106 13.2272C2.82469 12.9459 2.66666 12.5643 2.66666 12.1665V10.6665ZM9.16666 4.1665C9.16666 3.76868 9.32469 3.38715 9.606 3.10584C9.8873 2.82454 10.2688 2.6665 10.6667 2.6665H12.1667C12.5645 2.6665 12.946 2.82454 13.2273 3.10584C13.5086 3.38715 13.6667 3.76868 13.6667 4.1665V5.6665C13.6667 6.06433 13.5086 6.44586 13.2273 6.72716C12.946 7.00847 12.5645 7.1665 12.1667 7.1665H10.6667C10.2688 7.1665 9.8873 7.00847 9.606 6.72716C9.32469 6.44586 9.16666 6.06433 9.16666 5.6665V4.1665ZM9.16666 10.6665C9.16666 10.2687 9.32469 9.88715 9.606 9.60584C9.8873 9.32454 10.2688 9.1665 10.6667 9.1665H12.1667C12.5645 9.1665 12.946 9.32454 13.2273 9.60584C13.5086 9.88715 13.6667 10.2687 13.6667 10.6665V12.1665C13.6667 12.5643 13.5086 12.9459 13.2273 13.2272C12.946 13.5085 12.5645 13.6665 12.1667 13.6665H10.6667C10.2688 13.6665 9.8873 13.5085 9.606 13.2272C9.32469 12.9459 9.16666 12.5643 9.16666 12.1665V10.6665Z" stroke="#1D2939" stroke-linecap="round" stroke-linejoin="round"/>
</svg>
