<svg width="73" height="57" viewBox="0 0 73 57" fill="none" xmlns="http://www.w3.org/2000/svg">
<path d="M0.75 42L19.6663 23.0837C20.4324 22.3176 21.3419 21.7099 22.3428 21.2953C23.3438 20.8807 24.4166 20.6673 25.5 20.6673C26.5834 20.6673 27.6562 20.8807 28.6572 21.2953C29.6581 21.7099 30.5676 22.3176 31.3337 23.0837L50.25 42M44.75 36.5L49.9163 31.3337C50.6824 30.5676 51.5919 29.9599 52.5928 29.5453C53.5938 29.1307 54.6666 28.9173 55.75 28.9173C56.8334 28.9173 57.9062 29.1307 58.9072 29.5453C59.9081 29.9599 60.8176 30.5676 61.5837 31.3337L72.25 42M6.25 55.75H66.75C68.2087 55.75 69.6076 55.1705 70.6391 54.1391C71.6705 53.1076 72.25 51.7087 72.25 50.25V6.25C72.25 4.79131 71.6705 3.39236 70.6391 2.36091C69.6076 1.32946 68.2087 0.75 66.75 0.75H6.25C4.79131 0.75 3.39236 1.32946 2.36091 2.36091C1.32946 3.39236 0.75 4.79131 0.75 6.25V50.25C0.75 51.7087 1.32946 53.1076 2.36091 54.1391C3.39236 55.1705 4.79131 55.75 6.25 55.75ZM44.75 14.5H44.7793V14.5293H44.75V14.5ZM46.125 14.5C46.125 14.8647 45.9801 15.2144 45.7223 15.4723C45.4644 15.7301 45.1147 15.875 44.75 15.875C44.3853 15.875 44.0356 15.7301 43.7777 15.4723C43.5199 15.2144 43.375 14.8647 43.375 14.5C43.375 14.1353 43.5199 13.7856 43.7777 13.5277C44.0356 13.2699 44.3853 13.125 44.75 13.125C45.1147 13.125 45.4644 13.2699 45.7223 13.5277C45.9801 13.7856 46.125 14.1353 46.125 14.5Z" stroke="#1D2939" stroke-width="1.5" stroke-linecap="round" stroke-linejoin="round"/>
</svg>
